<svg xmlns="http://www.w3.org/2000/svg" viewBox="0 0 500 150" width="100%" height="100%">
  <defs>
    <linearGradient id="postmanOrange" x1="0%" y1="0%" x2="100%" y2="100%">
      <stop offset="0%" stop-color="#FF6C37" />
      <stop offset="100%" stop-color="#EF5B25" />
    </linearGradient>
  </defs>

  <g transform="translate(20, 25)">
    <path d="M10 35 C10 15, 30 10, 55 10 L80 10 C85 10, 90 15, 85 20 L70 35 C65 40, 55 42, 45 42 L10 42 Z" fill="url(#postmanOrange)" />
    <path d="M85 65 C85 85, 65 90, 40 90 L15 90 C10 90, 5 85, 10 80 L25 65 C30 60, 40 58, 50 58 L85 58 Z" fill="#FFFFFF" />
    <rect x="35" y="47" width="25" height="6" rx="3" fill="url(#postmanOrange)" opacity="0.8" />
  </g>

  <g transform="translate(140, 92)">
    <text font-family="system-ui, -apple-system, 'Segoe UI', Roboto, Helvetica, Arial, sans-serif" font-size="52" font-weight="800" fill="#FFFFFF" letter-spacing="1">Equi<tspan fill="url(#postmanOrange)">Flow</tspan></text>
    <text font-family="system-ui, -apple-system, 'Segoe UI', Roboto, Helvetica, Arial, sans-serif" font-size="14" font-weight="500" fill="#8B9BB4" letter-spacing="4" x="4" y="22">FINANCIAL PLATFORM</text>
  </g>
</svg>
