<svg xmlns="http://www.w3.org/2000/svg" viewBox="0 0 100 100" width="100" height="100">
  <defs>
    <linearGradient id="equiflowOrange" x1="0%" y1="0%" x2="100%" y2="100%">
      <stop offset="0%" stop-color="#FF6C37" />
      <stop offset="100%" stop-color="#EF5B25" />
    </linearGradient>
  </defs>
  <rect width="100" height="100" rx="22" fill="#0B0E14" />
  <g transform="translate(7, 7) scale(0.9)">
    <path d="M10 35 C10 15, 30 10, 55 10 L80 10 C85 10, 90 15, 85 20 L70 35 C65 40, 55 42, 45 42 L10 42 Z" fill="url(#equiflowOrange)" />
    <path d="M85 65 C85 85, 65 90, 40 90 L15 90 C10 90, 5 85, 10 80 L25 65 C30 60, 40 58, 50 58 L85 58 Z" fill="#FFFFFF" />
    <rect x="35" y="47" width="25" height="6" rx="3" fill="url(#equiflowOrange)" opacity="0.8" />
  </g>
</svg>
